<?xml version="1.0" encoding="UTF-8"?>
<svg id="Layer_1" xmlns="http://www.w3.org/2000/svg" version="1.1" viewBox="0 0 1080 1080">
  <!-- Generator: Adobe Illustrator 29.0.1, SVG Export Plug-In . SVG Version: 2.1.0 Build 192)  -->
  <defs>
    <style>
      .st0 {
        fill: #eebf91;
      }

      .st1 {
        fill: #ffba40;
      }

      .st2 {
        fill: #a5e4e3;
      }

      .st3 {
        fill: #e7f7f7;
      }

      .st4 {
        fill: #4acdca;
      }
    </style>
  </defs>
  <polygon class="st2" points="-.5 -.5 -.5 667 -.5 921.9 -.5 1079.5 1079.5 1079.5 1079.5 921.9 1079.5 667 1079.5 -.5 -.5 -.5"/>
  <path class="st2" d="M-.5-.5v667.5h412.5v-157.6c0-140.8,114.1-254.9,254.9-254.9h0v412.5h412.5V-.5H-.5ZM333.4,333.3c-43.5,0-78.8-35.3-78.8-78.8s35.3-78.8,78.8-78.8,78.8,35.3,78.8,78.8-35.3,78.8-78.8,78.8Z"/>
  <path class="st3" d="M667,254.5h0c-140.8,0-254.9,114.1-254.9,254.9v157.6h254.9V254.5Z"/>
  <circle class="st1" cx="333.4" cy="254.5" r="78.8" transform="translate(-36.5 56.7) rotate(-9.2)"/>
  <polygon class="st4" points="412.1 667 -.5 667 -.5 921.9 1079.5 921.9 1079.5 667 667 667 412.1 667"/>
  <rect class="st0" x="-.5" y="921.9" width="1080" height="157.6"/>
</svg>